<?xml version="1.0" encoding="UTF-8"?><svg id="Layer_1" xmlns="http://www.w3.org/2000/svg" viewBox="0 0 23.27 21.76"><defs><style>.cls-1{fill:#fff;}</style></defs><path class="cls-1" d="M11.19,20.98c9.82-1.09,15.25-7.51,10.11-20.98-4.03,2.82-9.54,4.66-12.31,8.44,1.81,1.59,3.31,3.35,3.72,5.65,2.5-3.05,5.23-5.82,6.67-8.9-1.48,7.4-3.79,10.2-7.35,13.98-.25.62-.53,1.23-.84,1.82h0ZM8.37,21.74C.76,19.89-2.88,14.41,2.7,4.69c4.51,4.34,12.46,7.1,7.27,16.26-.1.19-.22.38-.35.55-.93-4.53-4.66-8.12-5.76-11.92.25,6.21,2.05,8.03,4.82,12.17-.11,0-.22-.01-.32-.02h0Z"/></svg>