<?xml version="1.0" encoding="UTF-8"?>
<svg xmlns="http://www.w3.org/2000/svg" version="1.1" viewBox="0 0 26 26">
  <defs>
    <style>
      .cls-1 {
        fill: none;
      }
    </style>
  </defs>
  <!-- Generator: Adobe Illustrator 28.6.0, SVG Export Plug-In . SVG Version: 1.2.0 Build 709)  -->
  <g>
    <g id="Layer_1">
      <rect class="cls-1" width="26" height="26"/>
      <g>
        <path d="M7.7,15.1c.4-.2.9-.4,1.3-.5,1-.3,2-.4,3.1-.3,1.3,0,2.5.3,3.6.8.6.2,1.1.6,1.6,1,.6.5,1.2,1,1.8,1.5,0,0,0,0,0,0,0-.2,0-.4,0-.6-.2-.8-.4-1.6-.8-2.4-.5-.9-1.1-1.7-1.9-2.4-.7-.5-1.4-.9-2.2-1.1-.9-.3-1.7-.3-2.6-.3-2,0-3.8.5-5.6,1.3-1.5.6-2.9,1.5-4.2,2.5-.2.2-.4.3-.6.5.1.1.2.3.3.4.8,1.1,1.8,2.2,2.8,3.1,1,.8,2,1.6,3.2,2.1.8.3,1.6.6,2.4.7.5,0,1.1,0,1.6,0,.6,0,1.3,0,1.9-.1,1.2-.1,2.4-.4,3.5-.9.1,0,.3-.1.4-.2,0,.1.2.3.3.4.4.8.8,1.5,1.2,2.3.2.4.4.8.6,1.2.3.5,1,.7,1.5.3.4-.3.5-.9.2-1.3-.5-.7-.9-1.4-1.4-2.1-.7-1-1.5-1.8-2.3-2.7-1-1-2.2-1.8-3.4-2.4-.7-.3-1.5-.6-2.3-.7-1.3-.2-2.7-.3-4.1-.2,0,0,0,0,0,0Z"/>
        <path d="M20.8,1.3c-.2.2-.3.4-.4.5-.6.7-1.1,1.5-1.6,2.3-.5.9-.9,1.8-1.2,2.8-.2.7-.2,1.3-.2,2,0,1.8.7,3.4,1.8,4.8.2.2.3.4.5.6,0-.2.2-.4.2-.6.4-1.1.7-2.3.9-3.5.1-.8.2-1.6.3-2.5,0-.4,0-.9,0-1.3,0,.1,0,.3.1.4.2.6.3,1.3.4,1.9,0,.7,0,1.4,0,2.1-.1,1.4-.5,2.7-1,4,0,0,0,.1,0,.2.1,0,.2-.1.4-.2,1.2-.6,2.2-1.5,2.9-2.7.4-.7.6-1.5.7-2.3.1-1.2,0-2.3-.5-3.4-.5-1.3-1.1-2.4-1.9-3.5-.4-.6-.9-1.1-1.4-1.6,0,0,0,0,0,0Z"/>
      </g>
    </g>
  </g>
</svg>