<?xml version="1.0" encoding="UTF-8"?>
<svg xmlns="http://www.w3.org/2000/svg" version="1.1" viewBox="0 0 24 24">
  <defs>
    <style>
      .cls-1 {
        fill-rule: evenodd;
      }
    </style>
  </defs>
  <!-- Generator: Adobe Illustrator 28.6.0, SVG Export Plug-In . SVG Version: 1.2.0 Build 709)  -->
  <g>
    <g id="Layer_1">
      <g>
        <path class="cls-1" d="M12.1,6.4c-2.8,0-5.2,2.2-5.5,4.9,0,.2,0,.3,0,.5,0,1.2.4,2.3,1,3.2l-.7,2,2.1-.7c.9.6,1.9.9,3,.9h0c3,0,5.5-2.5,5.5-5.5s0-.3,0-.4c-.2-2.8-2.6-5-5.5-5ZM15.1,14.2c-.1.4-.8.7-1.1.8-.3,0-.3.2-1.9-.4-1.6-.6-2.7-2.3-2.7-2.4,0,0-.4-.5-.6-1.1,0-.2,0-.4,0-.5,0-.9.4-1.5,1.3-1.5s.2,0,.4.3c.1.3.5,1.1.5,1.2,0,0,0,.2,0,.3-.2.3-.6.6-.5.9,0,.2.4.7.9,1.1.6.5,1.1.7,1.3.8.3.2.7-.4.8-.7.1-.2.2-.1.4,0h0s1.3.6,1.4.7c0,0,0,.4,0,.8Z"/>
        <path class="cls-1" d="M12,1.3C6.1,1.3,1.3,6.1,1.3,12s4.8,10.7,10.7,10.7,10.7-4.8,10.7-10.7S17.9,1.3,12,1.3ZM12.1,18.3c-1.1,0-2.2-.3-3.2-.8l-3.6,1.1,1.2-3.5c-.6-1-.9-2.1-.9-3.4s0-.2,0-.3c.1-3.4,3-6.2,6.5-6.2s6.4,2.8,6.5,6.3h0c0,0,0,0,0,.2,0,3.6-2.9,6.5-6.5,6.5Z"/>
      </g>
    </g>
  </g>
</svg>