<?xml version="1.0" encoding="UTF-8"?>
<svg xmlns="http://www.w3.org/2000/svg" version="1.1" width="500" height="500" viewBox="0 0 500 500"><rect x="0" y="0" width="500" height="500" fill="#ffffff"/><g transform="scale(17.241)"><g transform="translate(0,0)"><path fill-rule="evenodd" d="M9 0L9 2L8 2L8 8L10 8L10 7L11 7L11 6L10 6L10 7L9 7L9 4L10 4L10 3L11 3L11 5L12 5L12 8L11 8L11 9L9 9L9 10L11 10L11 11L9 11L9 12L6 12L6 13L5 13L5 14L4 14L4 15L2 15L2 13L1 13L1 10L0 10L0 14L1 14L1 15L0 15L0 16L1 16L1 17L0 17L0 21L1 21L1 17L2 17L2 18L3 18L3 19L8 19L8 20L5 20L5 21L8 21L8 22L9 22L9 23L8 23L8 27L10 27L10 28L8 28L8 29L11 29L11 28L12 28L12 26L11 26L11 25L10 25L10 24L9 24L9 23L11 23L11 22L9 22L9 21L8 21L8 20L9 20L9 19L8 19L8 17L7 17L7 16L9 16L9 15L10 15L10 17L9 17L9 18L10 18L10 19L13 19L13 20L14 20L14 21L15 21L15 22L17 22L17 21L16 21L16 19L19 19L19 20L18 20L18 25L17 25L17 23L16 23L16 25L14 25L14 26L13 26L13 28L15 28L15 29L16 29L16 27L17 27L17 28L19 28L19 29L23 29L23 28L22 28L22 27L24 27L24 25L25 25L25 23L26 23L26 25L29 25L29 23L27 23L27 22L28 22L28 20L25 20L25 19L29 19L29 17L27 17L27 18L26 18L26 17L25 17L25 19L24 19L24 18L23 18L23 16L25 16L25 15L27 15L27 16L29 16L29 14L28 14L28 13L27 13L27 14L26 14L26 13L25 13L25 12L26 12L26 11L27 11L27 10L28 10L28 9L27 9L27 8L22 8L22 9L25 9L25 11L20 11L20 10L19 10L19 11L18 11L18 10L16 10L16 9L17 9L17 8L21 8L21 6L20 6L20 7L19 7L19 3L20 3L20 5L21 5L21 2L20 2L20 1L21 1L21 0L20 0L20 1L19 1L19 0L18 0L18 1L16 1L16 0ZM10 1L10 2L9 2L9 3L10 3L10 2L11 2L11 3L12 3L12 2L13 2L13 1ZM18 1L18 2L16 2L16 4L17 4L17 5L15 5L15 4L14 4L14 3L15 3L15 2L14 2L14 3L13 3L13 4L12 4L12 5L13 5L13 8L12 8L12 9L11 9L11 10L12 10L12 11L11 11L11 12L10 12L10 13L11 13L11 16L13 16L13 17L11 17L11 18L13 18L13 17L16 17L16 18L18 18L18 17L16 17L16 15L17 15L17 16L19 16L19 19L21 19L21 20L22 20L22 19L23 19L23 18L22 18L22 17L21 17L21 15L25 15L25 13L24 13L24 12L23 12L23 13L24 13L24 14L20 14L20 16L19 16L19 15L17 15L17 14L19 14L19 13L20 13L20 12L18 12L18 11L16 11L16 13L17 13L17 14L15 14L15 13L14 13L14 12L15 12L15 11L14 11L14 12L13 12L13 10L12 10L12 9L16 9L16 6L17 6L17 7L18 7L18 6L17 6L17 5L18 5L18 3L19 3L19 1ZM14 6L14 8L15 8L15 6ZM0 8L0 9L1 9L1 8ZM2 8L2 9L3 9L3 10L2 10L2 12L5 12L5 11L4 11L4 9L7 9L7 10L6 10L6 11L7 11L7 10L8 10L8 9L7 9L7 8ZM26 9L26 10L27 10L27 9ZM28 11L28 12L29 12L29 11ZM12 12L12 13L13 13L13 12ZM17 12L17 13L18 13L18 12ZM21 12L21 13L22 13L22 12ZM6 13L6 14L5 14L5 16L4 16L4 17L3 17L3 18L4 18L4 17L5 17L5 16L7 16L7 15L9 15L9 13ZM6 14L6 15L7 15L7 14ZM1 15L1 16L2 16L2 15ZM14 15L14 16L15 16L15 15ZM6 17L6 18L7 18L7 17ZM20 17L20 18L21 18L21 17ZM14 19L14 20L15 20L15 19ZM3 20L3 21L4 21L4 20ZM11 20L11 21L12 21L12 22L13 22L13 21L12 21L12 20ZM19 20L19 21L20 21L20 20ZM21 21L21 24L24 24L24 21ZM25 21L25 22L27 22L27 21ZM19 22L19 24L20 24L20 22ZM22 22L22 23L23 23L23 22ZM12 23L12 25L13 25L13 23ZM14 23L14 24L15 24L15 23ZM9 25L9 26L10 26L10 25ZM16 25L16 26L17 26L17 25ZM19 25L19 26L18 26L18 27L19 27L19 28L20 28L20 27L22 27L22 26L23 26L23 25L22 25L22 26L20 26L20 25ZM19 26L19 27L20 27L20 26ZM26 26L26 27L25 27L25 28L24 28L24 29L27 29L27 27L28 27L28 28L29 28L29 27L28 27L28 26ZM0 0L7 0L7 7L0 7ZM1 1L1 6L6 6L6 1ZM2 2L5 2L5 5L2 5ZM22 0L29 0L29 7L22 7ZM23 1L23 6L28 6L28 1ZM24 2L27 2L27 5L24 5ZM0 22L7 22L7 29L0 29ZM1 23L1 28L6 28L6 23ZM2 24L5 24L5 27L2 27Z" fill="#000000"/></g></g></svg>
