<?xml version="1.0" encoding="UTF-8"?>
<svg xmlns="http://www.w3.org/2000/svg" version="1.1" width="1024" height="1024" viewBox="0 0 1024 1024"><rect x="0" y="0" width="1024" height="1024" fill="#ffffff"/><g transform="scale(26.256)"><g transform="translate(1,1)"><path fill-rule="evenodd" d="M8 0L8 2L9 2L9 3L8 3L8 7L9 7L9 5L10 5L10 7L11 7L11 5L10 5L10 4L12 4L12 5L13 5L13 4L12 4L12 3L14 3L14 1L15 1L15 3L17 3L17 6L16 6L16 7L15 7L15 6L14 6L14 8L13 8L13 6L12 6L12 8L11 8L11 9L12 9L12 10L10 10L10 9L8 9L8 10L6 10L6 9L7 9L7 8L6 8L6 9L4 9L4 8L3 8L3 9L4 9L4 14L3 14L3 13L2 13L2 12L3 12L3 10L2 10L2 12L1 12L1 13L2 13L2 14L3 14L3 17L2 17L2 16L0 16L0 20L1 20L1 21L2 21L2 22L1 22L1 25L2 25L2 24L3 24L3 22L4 22L4 24L5 24L5 23L8 23L8 24L6 24L6 25L3 25L3 26L2 26L2 27L1 27L1 26L0 26L0 27L1 27L1 28L0 28L0 29L2 29L2 27L4 27L4 28L3 28L3 29L5 29L5 27L8 27L8 26L6 26L6 25L9 25L9 26L11 26L11 27L12 27L12 28L15 28L15 27L16 27L16 29L15 29L15 30L16 30L16 29L17 29L17 27L16 27L16 26L15 26L15 25L17 25L17 24L18 24L18 28L19 28L19 26L20 26L20 25L21 25L21 26L22 26L22 25L23 25L23 27L21 27L21 28L22 28L22 29L21 29L21 30L20 30L20 29L18 29L18 31L17 31L17 32L15 32L15 31L14 31L14 32L12 32L12 31L13 31L13 30L14 30L14 29L13 29L13 30L11 30L11 28L10 28L10 27L9 27L9 28L10 28L10 29L8 29L8 28L6 28L6 29L8 29L8 30L9 30L9 31L10 31L10 30L11 30L11 32L9 32L9 33L8 33L8 34L10 34L10 35L9 35L9 37L10 37L10 35L11 35L11 37L12 37L12 34L13 34L13 37L15 37L15 35L16 35L16 37L18 37L18 36L17 36L17 35L21 35L21 36L19 36L19 37L22 37L22 35L23 35L23 36L25 36L25 35L23 35L23 34L26 34L26 33L24 33L24 32L25 32L25 31L26 31L26 32L27 32L27 31L28 31L28 33L27 33L27 35L26 35L26 37L28 37L28 36L29 36L29 35L28 35L28 34L30 34L30 35L31 35L31 37L33 37L33 36L32 36L32 33L33 33L33 32L34 32L34 33L35 33L35 32L34 32L34 31L33 31L33 29L36 29L36 30L37 30L37 26L36 26L36 27L35 27L35 28L34 28L34 26L35 26L35 25L37 25L37 22L36 22L36 20L37 20L37 18L35 18L35 20L34 20L34 19L33 19L33 21L35 21L35 22L34 22L34 23L36 23L36 24L35 24L35 25L34 25L34 24L33 24L33 23L32 23L32 25L31 25L31 26L30 26L30 28L29 28L29 23L30 23L30 24L31 24L31 20L32 20L32 19L31 19L31 18L32 18L32 17L31 17L31 14L30 14L30 13L33 13L33 14L32 14L32 15L33 15L33 16L34 16L34 17L37 17L37 15L33 15L33 14L36 14L36 13L37 13L37 11L36 11L36 10L37 10L37 8L35 8L35 10L33 10L33 11L32 11L32 12L31 12L31 10L32 10L32 9L34 9L34 8L31 8L31 9L29 9L29 11L28 11L28 9L27 9L27 10L26 10L26 7L27 7L27 6L26 6L26 7L25 7L25 6L24 6L24 7L25 7L25 8L24 8L24 9L22 9L22 10L20 10L20 11L19 11L19 14L20 14L20 15L17 15L17 16L14 16L14 15L15 15L15 14L16 14L16 13L14 13L14 12L12 12L12 11L13 11L13 10L15 10L15 12L16 12L16 10L18 10L18 9L17 9L17 8L18 8L18 7L19 7L19 6L20 6L20 8L19 8L19 9L21 9L21 8L22 8L22 7L23 7L23 6L22 6L22 7L21 7L21 6L20 6L20 4L19 4L19 2L22 2L22 3L21 3L21 5L26 5L26 3L25 3L25 4L24 4L24 2L22 2L22 1L23 1L23 0L20 0L20 1L19 1L19 0L18 0L18 1L17 1L17 0L14 0L14 1L13 1L13 2L12 2L12 0L11 0L11 1L10 1L10 0ZM24 0L24 1L25 1L25 2L27 2L27 5L28 5L28 8L29 8L29 5L28 5L28 2L29 2L29 1L27 1L27 0L26 0L26 1L25 1L25 0ZM9 1L9 2L10 2L10 1ZM18 1L18 2L17 2L17 3L18 3L18 2L19 2L19 1ZM9 3L9 4L10 4L10 3ZM22 3L22 4L23 4L23 3ZM14 4L14 5L16 5L16 4ZM18 5L18 6L17 6L17 7L18 7L18 6L19 6L19 5ZM14 8L14 9L16 9L16 8ZM24 9L24 10L23 10L23 11L24 11L24 10L25 10L25 12L26 12L26 13L24 13L24 14L26 14L26 15L25 15L25 16L24 16L24 15L23 15L23 16L22 16L22 14L23 14L23 13L20 13L20 14L21 14L21 17L19 17L19 20L18 20L18 18L16 18L16 19L17 19L17 20L15 20L15 21L17 21L17 20L18 20L18 21L19 21L19 20L23 20L23 22L21 22L21 21L20 21L20 23L19 23L19 22L16 22L16 24L17 24L17 23L19 23L19 25L20 25L20 23L23 23L23 25L24 25L24 26L26 26L26 27L24 27L24 28L23 28L23 29L24 29L24 28L25 28L25 29L26 29L26 31L27 31L27 30L28 30L28 27L27 27L27 26L26 26L26 24L25 24L25 25L24 25L24 23L27 23L27 25L28 25L28 22L29 22L29 20L30 20L30 19L27 19L27 17L28 17L28 18L29 18L29 17L30 17L30 14L29 14L29 17L28 17L28 14L26 14L26 13L29 13L29 12L28 12L28 11L27 11L27 12L26 12L26 10L25 10L25 9ZM0 10L0 11L1 11L1 10ZM5 10L5 13L6 13L6 14L4 14L4 15L5 15L5 16L4 16L4 18L1 18L1 19L4 19L4 18L5 18L5 19L6 19L6 20L3 20L3 21L4 21L4 22L5 22L5 21L6 21L6 22L8 22L8 23L9 23L9 22L10 22L10 24L11 24L11 26L12 26L12 25L13 25L13 24L14 24L14 25L15 25L15 22L14 22L14 20L13 20L13 23L12 23L12 22L11 22L11 21L9 21L9 22L8 22L8 21L6 21L6 20L7 20L7 19L9 19L9 20L12 20L12 18L13 18L13 16L11 16L11 14L12 14L12 13L11 13L11 11L10 11L10 12L9 12L9 10L8 10L8 11L6 11L6 10ZM20 11L20 12L22 12L22 11ZM33 11L33 12L36 12L36 11ZM6 12L6 13L7 13L7 12ZM13 13L13 14L14 14L14 13ZM17 13L17 14L18 14L18 13ZM6 14L6 15L7 15L7 16L5 16L5 17L7 17L7 18L6 18L6 19L7 19L7 18L10 18L10 19L11 19L11 18L12 18L12 17L11 17L11 18L10 18L10 15L9 15L9 14L8 14L8 15L7 15L7 14ZM8 15L8 17L9 17L9 15ZM17 16L17 17L18 17L18 16ZM23 16L23 17L22 17L22 19L23 19L23 20L24 20L24 21L25 21L25 22L26 22L26 21L27 21L27 20L26 20L26 17L25 17L25 20L24 20L24 18L23 18L23 17L24 17L24 16ZM14 18L14 19L15 19L15 18ZM20 18L20 19L21 19L21 18ZM23 22L23 23L24 23L24 22ZM11 23L11 24L12 24L12 23ZM32 25L32 26L34 26L34 25ZM13 26L13 27L15 27L15 26ZM31 27L31 28L33 28L33 27ZM29 29L29 32L32 32L32 29ZM22 30L22 31L23 31L23 32L22 32L22 34L21 34L21 32L20 32L20 31L19 31L19 33L18 33L18 32L17 32L17 34L19 34L19 33L20 33L20 34L21 34L21 35L22 35L22 34L23 34L23 32L24 32L24 31L23 31L23 30ZM30 30L30 31L31 31L31 30ZM36 31L36 33L37 33L37 31ZM11 32L11 33L12 33L12 32ZM13 33L13 34L16 34L16 33ZM30 33L30 34L31 34L31 33ZM34 34L34 36L35 36L35 37L37 37L37 34L36 34L36 35L35 35L35 34ZM0 0L7 0L7 7L0 7ZM1 1L1 6L6 6L6 1ZM2 2L5 2L5 5L2 5ZM30 0L37 0L37 7L30 7ZM31 1L31 6L36 6L36 1ZM32 2L35 2L35 5L32 5ZM0 30L7 30L7 37L0 37ZM1 31L1 36L6 36L6 31ZM2 32L5 32L5 35L2 35Z" fill="#000000"/></g></g></svg>
