<?xml version="1.0" encoding="UTF-8"?>
<svg xmlns="http://www.w3.org/2000/svg" version="1.1" width="500" height="500" viewBox="0 0 500 500"><rect x="0" y="0" width="500" height="500" fill="#ffffff"/><g transform="scale(17.241)"><g transform="translate(0,0)"><path fill-rule="evenodd" d="M9 0L9 2L8 2L8 8L9 8L9 10L8 10L8 9L7 9L7 8L2 8L2 9L1 9L1 8L0 8L0 9L1 9L1 10L0 10L0 11L1 11L1 12L2 12L2 14L1 14L1 15L0 15L0 16L1 16L1 15L3 15L3 13L4 13L4 15L10 15L10 16L8 16L8 17L7 17L7 16L5 16L5 18L3 18L3 17L4 17L4 16L3 16L3 17L2 17L2 18L3 18L3 19L4 19L4 20L2 20L2 21L4 21L4 20L5 20L5 21L8 21L8 22L9 22L9 23L8 23L8 27L9 27L9 28L8 28L8 29L9 29L9 28L11 28L11 29L13 29L13 27L14 27L14 25L20 25L20 26L19 26L19 27L20 27L20 28L19 28L19 29L23 29L23 28L22 28L22 27L24 27L24 25L25 25L25 23L26 23L26 25L29 25L29 23L27 23L27 22L28 22L28 20L29 20L29 19L28 19L28 18L26 18L26 17L25 17L25 19L24 19L24 18L23 18L23 16L25 16L25 15L27 15L27 16L29 16L29 14L28 14L28 13L27 13L27 14L26 14L26 13L25 13L25 12L26 12L26 11L27 11L27 10L28 10L28 9L27 9L27 8L22 8L22 9L25 9L25 11L21 11L21 10L20 10L20 9L21 9L21 4L20 4L20 7L19 7L19 6L18 6L18 5L19 5L19 4L18 4L18 5L17 5L17 6L16 6L16 4L13 4L13 5L12 5L12 7L11 7L11 4L12 4L12 3L9 3L9 2L10 2L10 1L11 1L11 2L13 2L13 1L11 1L11 0ZM15 0L15 1L17 1L17 2L16 2L16 3L17 3L17 2L18 2L18 3L21 3L21 0L20 0L20 2L18 2L18 1L17 1L17 0ZM14 2L14 3L15 3L15 2ZM9 6L9 8L10 8L10 6ZM13 6L13 7L12 7L12 8L11 8L11 9L12 9L12 10L9 10L9 13L8 13L8 12L7 12L7 11L4 11L4 12L5 12L5 13L6 13L6 14L7 14L7 13L8 13L8 14L9 14L9 13L10 13L10 14L12 14L12 13L15 13L15 12L16 12L16 14L18 14L18 15L19 15L19 13L20 13L20 12L16 12L16 11L17 11L17 10L19 10L19 11L20 11L20 10L19 10L19 9L20 9L20 8L19 8L19 9L18 9L18 8L17 8L17 7L18 7L18 6L17 6L17 7L16 7L16 6L15 6L15 7L14 7L14 6ZM13 7L13 8L12 8L12 9L13 9L13 8L14 8L14 9L15 9L15 10L16 10L16 9L17 9L17 8L16 8L16 7L15 7L15 8L14 8L14 7ZM4 9L4 10L5 10L5 9ZM6 9L6 10L7 10L7 9ZM26 9L26 10L27 10L27 9ZM1 10L1 11L3 11L3 10ZM12 10L12 11L13 11L13 10ZM14 11L14 12L15 12L15 11ZM28 11L28 12L29 12L29 11ZM6 12L6 13L7 13L7 12ZM10 12L10 13L11 13L11 12ZM21 12L21 13L22 13L22 12ZM23 12L23 13L24 13L24 14L20 14L20 16L19 16L19 17L17 17L17 16L16 16L16 15L14 15L14 16L13 16L13 18L11 18L11 17L10 17L10 18L8 18L8 19L9 19L9 20L8 20L8 21L9 21L9 22L10 22L10 23L9 23L9 25L10 25L10 26L9 26L9 27L10 27L10 26L11 26L11 27L12 27L12 26L13 26L13 25L14 25L14 24L20 24L20 22L19 22L19 21L20 21L20 20L19 20L19 21L18 21L18 19L21 19L21 20L22 20L22 19L23 19L23 18L22 18L22 17L21 17L21 15L25 15L25 13L24 13L24 12ZM14 16L14 17L15 17L15 18L17 18L17 19L16 19L16 20L15 20L15 19L14 19L14 20L15 20L15 21L13 21L13 20L9 20L9 21L10 21L10 22L11 22L11 21L12 21L12 24L11 24L11 23L10 23L10 24L11 24L11 25L13 25L13 24L14 24L14 23L15 23L15 22L17 22L17 23L18 23L18 22L17 22L17 19L18 19L18 18L17 18L17 17L16 17L16 16ZM0 17L0 21L1 21L1 17ZM6 17L6 18L5 18L5 19L6 19L6 20L7 20L7 19L6 19L6 18L7 18L7 17ZM20 17L20 18L21 18L21 17ZM10 18L10 19L11 19L11 18ZM25 19L25 20L27 20L27 19ZM21 21L21 24L24 24L24 21ZM25 21L25 22L27 22L27 21ZM22 22L22 23L23 23L23 22ZM22 25L22 26L20 26L20 27L22 27L22 26L23 26L23 25ZM15 26L15 27L16 27L16 28L14 28L14 29L17 29L17 27L18 27L18 26ZM26 26L26 27L25 27L25 28L24 28L24 29L27 29L27 27L28 27L28 28L29 28L29 27L28 27L28 26ZM0 0L7 0L7 7L0 7ZM1 1L1 6L6 6L6 1ZM2 2L5 2L5 5L2 5ZM22 0L29 0L29 7L22 7ZM23 1L23 6L28 6L28 1ZM24 2L27 2L27 5L24 5ZM0 22L7 22L7 29L0 29ZM1 23L1 28L6 28L6 23ZM2 24L5 24L5 27L2 27Z" fill="#000000"/></g></g></svg>
