<?xml version="1.0" encoding="UTF-8"?>
<svg xmlns="http://www.w3.org/2000/svg" version="1.1" width="500" height="500" viewBox="0 0 500 500"><rect x="0" y="0" width="500" height="500" fill="#ffffff"/><g transform="scale(17.241)"><g transform="translate(0,0)"><path fill-rule="evenodd" d="M8 0L8 1L9 1L9 3L8 3L8 8L6 8L6 9L5 9L5 8L4 8L4 9L2 9L2 10L1 10L1 11L2 11L2 12L1 12L1 13L0 13L0 15L2 15L2 16L4 16L4 17L2 17L2 18L4 18L4 20L0 20L0 21L8 21L8 23L9 23L9 24L8 24L8 25L9 25L9 26L10 26L10 25L11 25L11 27L12 27L12 28L11 28L11 29L12 29L12 28L13 28L13 29L15 29L15 28L13 28L13 27L15 27L15 26L16 26L16 27L17 27L17 28L16 28L16 29L19 29L19 28L18 28L18 27L20 27L20 28L22 28L22 29L23 29L23 28L24 28L24 29L25 29L25 28L27 28L27 29L28 29L28 28L27 28L27 27L29 27L29 26L28 26L28 25L29 25L29 24L28 24L28 23L29 23L29 22L28 22L28 23L27 23L27 21L25 21L25 20L21 20L21 19L19 19L19 18L20 18L20 17L21 17L21 18L22 18L22 19L23 19L23 16L22 16L22 15L27 15L27 16L25 16L25 17L26 17L26 18L24 18L24 19L27 19L27 17L28 17L28 18L29 18L29 17L28 17L28 14L27 14L27 13L28 13L28 12L26 12L26 11L27 11L27 9L26 9L26 8L21 8L21 5L20 5L20 7L19 7L19 6L18 6L18 5L17 5L17 4L18 4L18 3L17 3L17 2L18 2L18 1L19 1L19 3L20 3L20 4L21 4L21 2L20 2L20 0L18 0L18 1L16 1L16 2L15 2L15 3L14 3L14 2L13 2L13 1L12 1L12 0L10 0L10 1L9 1L9 0ZM10 1L10 3L11 3L11 1ZM12 2L12 4L10 4L10 5L9 5L9 8L14 8L14 6L13 6L13 7L12 7L12 6L11 6L11 7L10 7L10 5L13 5L13 4L14 4L14 3L13 3L13 2ZM15 4L15 5L16 5L16 6L15 6L15 8L18 8L18 9L10 9L10 11L13 11L13 10L16 10L16 11L17 11L17 12L15 12L15 11L14 11L14 13L15 13L15 14L13 14L13 12L11 12L11 13L9 13L9 10L8 10L8 9L6 9L6 10L5 10L5 9L4 9L4 10L3 10L3 12L2 12L2 13L1 13L1 14L2 14L2 13L3 13L3 15L5 15L5 14L11 14L11 13L12 13L12 14L13 14L13 15L11 15L11 18L10 18L10 19L8 19L8 18L9 18L9 17L8 17L8 16L10 16L10 15L6 15L6 16L7 16L7 17L4 17L4 18L7 18L7 19L5 19L5 20L10 20L10 19L12 19L12 17L13 17L13 18L17 18L17 19L18 19L18 20L17 20L17 23L16 23L16 22L13 22L13 21L10 21L10 22L9 22L9 23L10 23L10 22L11 22L11 23L12 23L12 24L11 24L11 25L13 25L13 26L15 26L15 25L16 25L16 24L17 24L17 27L18 27L18 26L19 26L19 25L20 25L20 27L24 27L24 26L25 26L25 27L26 27L26 26L25 26L25 25L24 25L24 26L23 26L23 25L20 25L20 21L18 21L18 20L19 20L19 19L18 19L18 17L17 17L17 16L19 16L19 15L16 15L16 13L17 13L17 14L18 14L18 13L19 13L19 14L20 14L20 16L21 16L21 17L22 17L22 16L21 16L21 15L22 15L22 13L21 13L21 12L20 12L20 11L22 11L22 12L23 12L23 13L24 13L24 14L26 14L26 13L24 13L24 12L25 12L25 11L22 11L22 10L26 10L26 9L22 9L22 10L21 10L21 8L20 8L20 11L18 11L18 10L19 10L19 7L18 7L18 6L17 6L17 5L16 5L16 4ZM16 6L16 7L17 7L17 6ZM0 8L0 9L1 9L1 8ZM28 8L28 9L29 9L29 8ZM4 10L4 12L3 12L3 13L7 13L7 12L6 12L6 11L8 11L8 10L6 10L6 11L5 11L5 10ZM28 10L28 11L29 11L29 10ZM17 12L17 13L18 13L18 12ZM19 12L19 13L20 13L20 12ZM14 15L14 16L13 16L13 17L16 17L16 16L15 16L15 15ZM0 16L0 18L1 18L1 16ZM14 19L14 21L16 21L16 20L15 20L15 19ZM28 19L28 20L29 20L29 19ZM21 21L21 24L24 24L24 21ZM12 22L12 23L13 23L13 22ZM18 22L18 23L17 23L17 24L18 24L18 23L19 23L19 22ZM22 22L22 23L23 23L23 22ZM14 23L14 24L13 24L13 25L15 25L15 23ZM25 23L25 24L26 24L26 25L28 25L28 24L26 24L26 23ZM9 24L9 25L10 25L10 24ZM9 27L9 28L8 28L8 29L9 29L9 28L10 28L10 27ZM0 0L7 0L7 7L0 7ZM1 1L1 6L6 6L6 1ZM2 2L5 2L5 5L2 5ZM22 0L29 0L29 7L22 7ZM23 1L23 6L28 6L28 1ZM24 2L27 2L27 5L24 5ZM0 22L7 22L7 29L0 29ZM1 23L1 28L6 28L6 23ZM2 24L5 24L5 27L2 27Z" fill="#000000"/></g></g></svg>
