<?xml version="1.0" encoding="UTF-8"?>
<svg xmlns="http://www.w3.org/2000/svg" version="1.1" width="500" height="500" viewBox="0 0 500 500"><rect x="0" y="0" width="500" height="500" fill="#ffffff"/><g transform="scale(17.241)"><g transform="translate(0,0)"><path fill-rule="evenodd" d="M9 0L9 2L8 2L8 8L9 8L9 2L12 2L12 3L13 3L13 0L11 0L11 1L10 1L10 0ZM15 0L15 1L17 1L17 2L16 2L16 4L13 4L13 5L10 5L10 7L11 7L11 8L14 8L14 9L15 9L15 10L17 10L17 11L16 11L16 13L13 13L13 11L11 11L11 10L12 10L12 9L10 9L10 12L9 12L9 11L8 11L8 15L9 15L9 13L10 13L10 15L11 15L11 16L9 16L9 17L8 17L8 16L6 16L6 17L5 17L5 16L3 16L3 17L5 17L5 18L4 18L4 19L3 19L3 18L2 18L2 16L1 16L1 15L2 15L2 14L4 14L4 15L7 15L7 14L6 14L6 13L7 13L7 12L6 12L6 11L7 11L7 10L6 10L6 11L5 11L5 10L4 10L4 9L7 9L7 8L2 8L2 9L1 9L1 8L0 8L0 14L1 14L1 15L0 15L0 16L1 16L1 17L0 17L0 21L1 21L1 18L2 18L2 19L3 19L3 20L4 20L4 21L8 21L8 22L10 22L10 23L11 23L11 22L10 22L10 21L11 21L11 20L13 20L13 18L12 18L12 19L11 19L11 16L12 16L12 17L13 17L13 16L14 16L14 17L15 17L15 18L17 18L17 19L16 19L16 21L13 21L13 23L12 23L12 24L11 24L11 25L10 25L10 26L9 26L9 23L8 23L8 27L11 27L11 25L12 25L12 28L8 28L8 29L15 29L15 26L17 26L17 25L16 25L16 23L17 23L17 24L18 24L18 29L23 29L23 28L22 28L22 27L24 27L24 25L25 25L25 23L26 23L26 25L29 25L29 23L27 23L27 22L28 22L28 20L25 20L25 19L29 19L29 17L28 17L28 18L26 18L26 17L25 17L25 19L24 19L24 18L23 18L23 16L25 16L25 15L27 15L27 16L29 16L29 14L28 14L28 13L27 13L27 14L26 14L26 13L25 13L25 12L26 12L26 11L27 11L27 10L28 10L28 9L27 9L27 8L22 8L22 9L25 9L25 11L21 11L21 10L20 10L20 9L19 9L19 8L21 8L21 6L20 6L20 7L19 7L19 6L18 6L18 5L16 5L16 4L17 4L17 3L18 3L18 4L19 4L19 3L20 3L20 5L21 5L21 2L18 2L18 1L17 1L17 0ZM19 0L19 1L21 1L21 0ZM14 2L14 3L15 3L15 2ZM11 6L11 7L12 7L12 6ZM13 6L13 7L14 7L14 8L15 8L15 7L16 7L16 9L17 9L17 10L19 10L19 11L20 11L20 10L19 10L19 9L17 9L17 8L19 8L19 7L18 7L18 6L17 6L17 7L16 7L16 6L15 6L15 7L14 7L14 6ZM2 9L2 10L1 10L1 11L2 11L2 13L1 13L1 14L2 14L2 13L4 13L4 14L5 14L5 12L4 12L4 10L3 10L3 9ZM26 9L26 10L27 10L27 9ZM2 10L2 11L3 11L3 10ZM14 11L14 12L15 12L15 11ZM28 11L28 12L29 12L29 11ZM11 12L11 13L12 13L12 14L11 14L11 15L13 15L13 13L12 13L12 12ZM17 12L17 13L16 13L16 14L18 14L18 15L16 15L16 17L17 17L17 18L18 18L18 19L21 19L21 20L22 20L22 19L23 19L23 18L22 18L22 17L21 17L21 15L25 15L25 13L24 13L24 12L23 12L23 13L24 13L24 14L20 14L20 16L18 16L18 15L19 15L19 13L20 13L20 12ZM21 12L21 13L22 13L22 12ZM14 15L14 16L15 16L15 15ZM17 16L17 17L18 17L18 18L19 18L19 17L18 17L18 16ZM6 17L6 18L5 18L5 19L4 19L4 20L5 20L5 19L6 19L6 20L8 20L8 21L10 21L10 20L9 20L9 19L10 19L10 18L8 18L8 19L6 19L6 18L7 18L7 17ZM20 17L20 18L21 18L21 17ZM14 19L14 20L15 20L15 19ZM17 20L17 21L16 21L16 22L18 22L18 23L19 23L19 24L20 24L20 22L19 22L19 21L20 21L20 20L19 20L19 21L18 21L18 20ZM21 21L21 24L24 24L24 21ZM25 21L25 22L27 22L27 21ZM22 22L22 23L23 23L23 22ZM14 23L14 24L13 24L13 26L15 26L15 25L14 25L14 24L15 24L15 23ZM19 25L19 26L20 26L20 27L19 27L19 28L20 28L20 27L22 27L22 26L23 26L23 25L22 25L22 26L20 26L20 25ZM26 26L26 27L25 27L25 28L24 28L24 29L27 29L27 27L28 27L28 28L29 28L29 27L28 27L28 26ZM13 27L13 28L14 28L14 27ZM16 27L16 28L17 28L17 27ZM0 0L7 0L7 7L0 7ZM1 1L1 6L6 6L6 1ZM2 2L5 2L5 5L2 5ZM22 0L29 0L29 7L22 7ZM23 1L23 6L28 6L28 1ZM24 2L27 2L27 5L24 5ZM0 22L7 22L7 29L0 29ZM1 23L1 28L6 28L6 23ZM2 24L5 24L5 27L2 27Z" fill="#046a37"/></g></g></svg>
