<?xml version="1.0" encoding="utf-8"?><svg xmlns="http://www.w3.org/2000/svg" xmlns:xlink="http://www.w3.org/1999/xlink" width="500" height="705.00" viewBox="0 0 500 705.00" style="fill: #046A37"><rect x="10.00" y="10.00" width="480.31" height="480.31" fill="#ffffff" fill-opacity="1" /><g transform="scale(1.00) translate(0 0)"><g transform="matrix(2.399191, 0, 0, 2.399191, -109.938606, -7.37865)"><path d="M 225.107 7.755 L 244.497 7.755 C 247.258 7.755 249.497 9.994 249.497 12.755 L 249.497 31.485 L 254.227 31.485 L 254.227 12.755 C 254.227 7.409 249.893 3.075 244.547 3.075 L 225.107 3.075 L 225.107 7.755 Z" /><path d="M 50.393 31.485 L 50.393 12.755 C 50.393 9.994 52.632 7.755 55.393 7.755 L 73.463 7.755 L 73.463 3.075 L 55.393 3.075 C 50.047 3.075 45.713 7.409 45.713 12.755 L 45.713 31.485 L 50.393 31.485 Z" /><path d="M 73.573 206.799 L 55.503 206.799 C 52.742 206.799 50.503 204.56 50.503 201.799 L 50.503 183.069 L 45.823 183.069 L 45.823 201.799 C 45.823 207.145 50.157 211.479 55.503 211.479 L 73.573 211.479 L 73.573 206.799 Z" /><path d="M 249.547 183.069 L 249.547 201.799 C 249.547 204.56 247.308 206.799 244.547 206.799 L 225.157 206.799 L 225.157 211.479 L 244.547 211.479 C 249.893 211.479 254.227 207.145 254.227 201.799 L 254.227 183.069 L 249.547 183.069 Z" /><path d="M 244.68 214.77 L 55.38 214.77 C 50.272 214.77 46.13 218.911 46.13 224.02 L 46.13 265.58 C 46.125 270.692 50.268 274.84 55.38 274.84 L 125.93 274.84 C 126.544 274.837 127.134 275.078 127.57 275.51 L 148.31 296.25 C 149.219 297.15 150.682 297.15 151.59 296.25 L 172.34 275.51 C 172.774 275.075 173.366 274.833 173.98 274.84 L 244.56 274.84 C 249.673 274.84 253.816 270.692 253.81 265.58 L 253.81 224.02 C 253.849 218.942 249.758 214.797 244.68 214.77 Z" transform="matrix(-1, 0, 0, -1, -0.000006, -0.000011)" style="transform-box: fill-box; transform-origin: 50%" />
                              
                              
                              
                              
                              
                            </g>
                            
                        </g><g transform="scale(0.85) translate(42.55 42.55)"><svg xmlns="http://www.w3.org/2000/svg" version="1.1" width="500" height="500" viewBox="0 0 500 500"><g transform="scale(17.241)"><g transform="translate(0,0)"><path d="M13 0L13 1L12 1L12 2L10 2L10 1L9 1L9 2L8 2L8 8L9 8L9 9L7 9L7 8L2 8L2 9L1 9L1 8L0 8L0 10L3 10L3 11L2 11L2 12L3 12L3 13L1 13L1 14L2 14L2 16L0 16L0 21L1 21L1 18L2 18L2 19L3 19L3 17L2 17L2 16L6 16L6 17L7 17L7 16L6 16L6 15L7 15L7 14L6 14L6 13L8 13L8 14L9 14L9 15L8 15L8 16L9 16L9 20L12 20L12 21L8 21L8 18L4 18L4 20L3 20L3 21L8 21L8 22L10 22L10 23L11 23L11 24L12 24L12 26L11 26L11 28L12 28L12 29L14 29L14 28L15 28L15 29L16 29L16 27L17 27L17 28L19 28L19 29L23 29L23 28L22 28L22 27L24 27L24 25L25 25L25 23L26 23L26 25L29 25L29 23L27 23L27 22L28 22L28 20L25 20L25 19L29 19L29 17L27 17L27 18L26 18L26 17L25 17L25 19L24 19L24 18L23 18L23 16L25 16L25 15L27 15L27 16L29 16L29 14L28 14L28 13L27 13L27 14L26 14L26 13L25 13L25 12L26 12L26 11L27 11L27 10L28 10L28 9L27 9L27 8L22 8L22 9L25 9L25 11L21 11L21 10L20 10L20 9L19 9L19 11L18 11L18 10L16 10L16 9L17 9L17 8L21 8L21 6L20 6L20 5L21 5L21 2L20 2L20 1L21 1L21 0L19 0L19 2L18 2L18 1L16 1L16 0ZM14 2L14 3L13 3L13 5L12 5L12 6L11 6L11 5L10 5L10 4L12 4L12 3L9 3L9 5L10 5L10 6L9 6L9 7L10 7L10 6L11 6L11 7L12 7L12 6L13 6L13 9L16 9L16 6L17 6L17 7L18 7L18 6L17 6L17 5L19 5L19 4L20 4L20 3L17 3L17 2L16 2L16 4L17 4L17 5L15 5L15 4L14 4L14 3L15 3L15 2ZM14 6L14 8L15 8L15 6ZM19 6L19 7L20 7L20 6ZM3 9L3 10L4 10L4 11L3 11L3 12L5 12L5 13L6 13L6 12L9 12L9 13L11 13L11 14L10 14L10 15L9 15L9 16L10 16L10 17L11 17L11 18L12 18L12 20L13 20L13 25L16 25L16 26L17 26L17 25L18 25L18 20L17 20L17 19L16 19L16 21L17 21L17 22L15 22L15 21L14 21L14 20L15 20L15 19L14 19L14 20L13 20L13 18L12 18L12 17L16 17L16 18L18 18L18 19L21 19L21 20L22 20L22 19L23 19L23 18L22 18L22 17L21 17L21 15L25 15L25 13L24 13L24 12L23 12L23 13L24 13L24 14L20 14L20 16L19 16L19 17L18 17L18 16L17 16L17 17L16 17L16 15L17 15L17 14L18 14L18 15L19 15L19 14L18 14L18 13L20 13L20 12L18 12L18 11L16 11L16 13L17 13L17 14L15 14L15 13L14 13L14 12L15 12L15 11L14 11L14 12L13 12L13 10L12 10L12 11L11 11L11 9L10 9L10 10L9 10L9 11L6 11L6 10L7 10L7 9L5 9L5 10L4 10L4 9ZM26 9L26 10L27 10L27 9ZM10 11L10 12L11 12L11 13L13 13L13 12L11 12L11 11ZM28 11L28 12L29 12L29 11ZM17 12L17 13L18 13L18 12ZM21 12L21 13L22 13L22 12ZM3 13L3 14L4 14L4 13ZM12 14L12 15L11 15L11 16L13 16L13 14ZM14 15L14 16L15 16L15 15ZM20 17L20 18L21 18L21 17ZM5 19L5 20L7 20L7 19ZM19 20L19 21L20 21L20 20ZM21 21L21 24L24 24L24 21ZM25 21L25 22L27 22L27 21ZM11 22L11 23L12 23L12 22ZM19 22L19 24L20 24L20 22ZM22 22L22 23L23 23L23 22ZM8 23L8 27L9 27L9 26L10 26L10 24L9 24L9 23ZM14 23L14 24L15 24L15 23ZM16 23L16 25L17 25L17 23ZM19 25L19 26L18 26L18 27L19 27L19 28L20 28L20 27L22 27L22 26L23 26L23 25L22 25L22 26L20 26L20 25ZM19 26L19 27L20 27L20 26ZM26 26L26 27L25 27L25 28L24 28L24 29L27 29L27 27L28 27L28 28L29 28L29 27L28 27L28 26ZM8 28L8 29L9 29L9 28ZM0 0L7 0L7 7L0 7ZM1 1L1 6L6 6L6 1ZM2 2L5 2L5 5L2 5ZM22 0L29 0L29 7L22 7ZM23 1L23 6L28 6L28 1ZM24 2L27 2L27 5L24 5ZM0 22L7 22L7 29L0 29ZM1 23L1 28L6 28L6 23ZM2 24L5 24L5 27L2 27Z" style="fill-rule: evenodd; fill: #000000" /></g></g></svg></g><svg><text x="50%" y="90%" style="dominant-baseline: middle; text-anchor: middle; font-weight: bold; font-size: 38.46px; fill: #ffffff; font-family: Verdana, sans-serif">LINK ZOOM FIH</text></svg></svg>