<?xml version="1.0" encoding="UTF-8"?>
<svg xmlns="http://www.w3.org/2000/svg" version="1.1" width="1024" height="1024" viewBox="0 0 1024 1024"><rect x="0" y="0" width="1024" height="1024" fill="#ffffff"/><g transform="scale(27.676)"><g transform="translate(2,2)"><path fill-rule="evenodd" d="M9 0L9 1L10 1L10 2L12 2L12 1L13 1L13 0L12 0L12 1L11 1L11 0ZM16 0L16 1L14 1L14 2L15 2L15 3L14 3L14 4L13 4L13 3L12 3L12 5L11 5L11 3L9 3L9 2L8 2L8 4L9 4L9 5L10 5L10 8L9 8L9 9L8 9L8 8L6 8L6 9L5 9L5 8L3 8L3 9L4 9L4 10L6 10L6 11L5 11L5 12L4 12L4 13L5 13L5 14L3 14L3 13L0 13L0 16L1 16L1 17L2 17L2 18L0 18L0 25L4 25L4 24L6 24L6 25L8 25L8 27L9 27L9 26L10 26L10 24L9 24L9 23L8 23L8 20L6 20L6 19L10 19L10 18L12 18L12 15L11 15L11 14L13 14L13 15L15 15L15 16L14 16L14 18L16 18L16 16L17 16L17 17L18 17L18 18L17 18L17 19L16 19L16 20L14 20L14 19L13 19L13 21L15 21L15 22L13 22L13 23L15 23L15 24L14 24L14 26L13 26L13 27L12 27L12 28L8 28L8 30L9 30L9 29L12 29L12 28L13 28L13 30L12 30L12 31L11 31L11 30L10 30L10 31L11 31L11 32L15 32L15 33L16 33L16 32L15 32L15 30L17 30L17 32L18 32L18 30L19 30L19 33L22 33L22 32L20 32L20 30L19 30L19 29L18 29L18 30L17 30L17 29L16 29L16 28L18 28L18 24L19 24L19 23L20 23L20 24L21 24L21 26L20 26L20 27L19 27L19 28L20 28L20 29L22 29L22 31L23 31L23 30L24 30L24 31L26 31L26 32L25 32L25 33L27 33L27 31L28 31L28 33L31 33L31 32L29 32L29 31L30 31L30 30L31 30L31 31L33 31L33 30L32 30L32 29L33 29L33 28L32 28L32 29L30 29L30 30L29 30L29 28L30 28L30 27L29 27L29 25L30 25L30 26L31 26L31 25L30 25L30 23L29 23L29 22L33 22L33 21L30 21L30 19L33 19L33 17L32 17L32 18L31 18L31 17L30 17L30 16L31 16L31 15L30 15L30 14L33 14L33 11L32 11L32 9L31 9L31 8L29 8L29 9L26 9L26 10L24 10L24 9L25 9L25 8L24 8L24 7L25 7L25 5L24 5L24 7L23 7L23 6L22 6L22 5L23 5L23 3L24 3L24 2L23 2L23 1L22 1L22 0L21 0L21 1L20 1L20 0L19 0L19 1L17 1L17 0ZM24 0L24 1L25 1L25 0ZM19 1L19 2L17 2L17 3L15 3L15 4L14 4L14 6L13 6L13 8L12 8L12 6L11 6L11 8L12 8L12 10L11 10L11 11L10 11L10 9L9 9L9 10L8 10L8 9L6 9L6 10L7 10L7 11L6 11L6 12L8 12L8 13L6 13L6 14L5 14L5 15L4 15L4 16L3 16L3 15L2 15L2 14L1 14L1 16L2 16L2 17L6 17L6 18L7 18L7 17L8 17L8 16L9 16L9 18L10 18L10 16L11 16L11 15L8 15L8 16L7 16L7 15L6 15L6 14L9 14L9 12L11 12L11 13L10 13L10 14L11 14L11 13L13 13L13 14L14 14L14 13L15 13L15 14L16 14L16 13L18 13L18 14L19 14L19 11L20 11L20 10L19 10L19 8L20 8L20 9L21 9L21 10L22 10L22 11L21 11L21 12L20 12L20 13L21 13L21 15L22 15L22 16L21 16L21 17L19 17L19 18L18 18L18 19L17 19L17 20L16 20L16 21L18 21L18 22L20 22L20 21L21 21L21 24L22 24L22 25L23 25L23 24L25 24L25 22L27 22L27 21L26 21L26 20L27 20L27 19L26 19L26 18L28 18L28 20L29 20L29 19L30 19L30 18L28 18L28 17L29 17L29 16L27 16L27 14L28 14L28 15L29 15L29 13L28 13L28 12L26 12L26 11L23 11L23 10L22 10L22 9L24 9L24 8L23 8L23 7L22 7L22 6L21 6L21 3L20 3L20 1ZM22 2L22 3L23 3L23 2ZM17 4L17 5L15 5L15 6L14 6L14 8L13 8L13 10L12 10L12 11L11 11L11 12L12 12L12 11L13 11L13 13L14 13L14 11L15 11L15 12L17 12L17 11L19 11L19 10L17 10L17 11L15 11L15 10L16 10L16 7L17 7L17 8L18 8L18 7L19 7L19 6L20 6L20 8L22 8L22 7L21 7L21 6L20 6L20 4ZM17 5L17 7L18 7L18 5ZM8 6L8 7L9 7L9 6ZM15 6L15 7L16 7L16 6ZM0 9L0 12L3 12L3 10L2 10L2 9ZM1 10L1 11L2 11L2 10ZM13 10L13 11L14 11L14 10ZM27 10L27 11L28 11L28 10ZM30 10L30 11L29 11L29 12L30 12L30 11L31 11L31 12L32 12L32 11L31 11L31 10ZM8 11L8 12L9 12L9 11ZM22 11L22 12L21 12L21 13L23 13L23 14L22 14L22 15L23 15L23 17L22 17L22 19L21 19L21 18L20 18L20 19L21 19L21 20L22 20L22 19L23 19L23 20L24 20L24 21L25 21L25 20L26 20L26 19L25 19L25 20L24 20L24 18L25 18L25 17L26 17L26 16L24 16L24 15L25 15L25 13L26 13L26 14L27 14L27 13L26 13L26 12L25 12L25 13L24 13L24 12L23 12L23 11ZM5 15L5 16L6 16L6 17L7 17L7 16L6 16L6 15ZM17 15L17 16L18 16L18 15ZM2 18L2 19L3 19L3 18ZM11 19L11 22L10 22L10 20L9 20L9 22L10 22L10 23L11 23L11 26L12 26L12 25L13 25L13 24L12 24L12 23L11 23L11 22L12 22L12 19ZM18 19L18 21L19 21L19 19ZM1 20L1 24L4 24L4 23L5 23L5 21L6 21L6 22L7 22L7 21L6 21L6 20L3 20L3 21L2 21L2 20ZM22 21L22 23L24 23L24 22L23 22L23 21ZM28 21L28 22L29 22L29 21ZM2 22L2 23L3 23L3 22ZM6 23L6 24L8 24L8 23ZM16 23L16 24L15 24L15 26L14 26L14 30L13 30L13 31L14 31L14 30L15 30L15 27L17 27L17 24L18 24L18 23ZM32 23L32 25L33 25L33 23ZM25 25L25 28L28 28L28 25ZM21 26L21 27L23 27L23 29L24 29L24 30L25 30L25 29L24 29L24 26ZM26 26L26 27L27 27L27 26ZM32 26L32 27L33 27L33 26ZM26 29L26 30L28 30L28 31L29 31L29 30L28 30L28 29ZM9 32L9 33L10 33L10 32ZM23 32L23 33L24 33L24 32ZM0 0L7 0L7 7L0 7ZM1 1L1 6L6 6L6 1ZM2 2L5 2L5 5L2 5ZM26 0L33 0L33 7L26 7ZM27 1L27 6L32 6L32 1ZM28 2L31 2L31 5L28 5ZM0 26L7 26L7 33L0 33ZM1 27L1 32L6 32L6 27ZM2 28L5 28L5 31L2 31Z" fill="#000000"/></g></g></svg>
