<?xml version="1.0" encoding="UTF-8"?>
<svg xmlns="http://www.w3.org/2000/svg" version="1.1" width="500" height="500" viewBox="0 0 500 500"><rect x="0" y="0" width="500" height="500" fill="#ffffff"/><g transform="scale(17.241)"><g transform="translate(0,0)"><path fill-rule="evenodd" d="M8 0L8 3L9 3L9 2L11 2L11 3L10 3L10 4L8 4L8 5L9 5L9 6L8 6L8 7L9 7L9 8L3 8L3 9L1 9L1 8L0 8L0 10L3 10L3 12L2 12L2 11L1 11L1 12L0 12L0 15L1 15L1 16L2 16L2 17L0 17L0 21L2 21L2 20L3 20L3 21L5 21L5 20L6 20L6 21L7 21L7 20L8 20L8 26L9 26L9 27L10 27L10 28L8 28L8 29L10 29L10 28L11 28L11 29L12 29L12 28L13 28L13 27L12 27L12 26L11 26L11 25L12 25L12 24L11 24L11 23L13 23L13 21L14 21L14 24L13 24L13 25L16 25L16 23L15 23L15 21L16 21L16 22L17 22L17 21L16 21L16 20L18 20L18 22L20 22L20 25L18 25L18 23L17 23L17 25L18 25L18 26L14 26L14 29L18 29L18 28L19 28L19 29L20 29L20 28L19 28L19 26L20 26L20 25L23 25L23 27L22 27L22 28L21 28L21 29L26 29L26 27L27 27L27 28L28 28L28 27L29 27L29 26L28 26L28 24L27 24L27 23L26 23L26 22L27 22L27 21L28 21L28 22L29 22L29 18L27 18L27 19L23 19L23 18L24 18L24 16L25 16L25 15L23 15L23 14L24 14L24 13L26 13L26 17L25 17L25 18L26 18L26 17L27 17L27 15L28 15L28 14L27 14L27 12L28 12L28 13L29 13L29 12L28 12L28 11L27 11L27 12L26 12L26 10L27 10L27 9L28 9L28 10L29 10L29 8L26 8L26 9L25 9L25 8L24 8L24 9L25 9L25 11L24 11L24 10L23 10L23 9L22 9L22 8L21 8L21 9L20 9L20 8L19 8L19 6L20 6L20 7L21 7L21 6L20 6L20 5L21 5L21 4L20 4L20 5L19 5L19 2L20 2L20 3L21 3L21 1L19 1L19 2L18 2L18 0L14 0L14 1L17 1L17 2L15 2L15 3L18 3L18 4L17 4L17 5L19 5L19 6L18 6L18 7L17 7L17 6L16 6L16 7L15 7L15 6L14 6L14 7L13 7L13 6L12 6L12 7L11 7L11 5L10 5L10 4L11 4L11 3L12 3L12 4L13 4L13 2L12 2L12 0L10 0L10 1L9 1L9 0ZM14 4L14 5L16 5L16 4ZM9 6L9 7L10 7L10 9L9 9L9 10L10 10L10 11L12 11L12 10L13 10L13 8L12 8L12 10L11 10L11 7L10 7L10 6ZM14 7L14 13L15 13L15 14L14 14L14 15L13 15L13 13L12 13L12 12L11 12L11 13L12 13L12 15L11 15L11 17L9 17L9 18L8 18L8 17L6 17L6 18L7 18L7 19L6 19L6 20L7 20L7 19L8 19L8 20L10 20L10 19L9 19L9 18L11 18L11 20L12 20L12 21L10 21L10 22L9 22L9 24L10 24L10 25L11 25L11 24L10 24L10 23L11 23L11 22L12 22L12 21L13 21L13 20L14 20L14 19L15 19L15 18L13 18L13 17L14 17L14 16L15 16L15 15L16 15L16 16L17 16L17 17L16 17L16 18L17 18L17 19L19 19L19 20L21 20L21 19L22 19L22 18L23 18L23 17L22 17L22 18L21 18L21 19L19 19L19 18L20 18L20 16L18 16L18 15L21 15L21 16L23 16L23 15L22 15L22 13L23 13L23 12L24 12L24 11L23 11L23 10L21 10L21 12L20 12L20 13L17 13L17 12L18 12L18 11L19 11L19 10L20 10L20 9L19 9L19 8L17 8L17 7L16 7L16 9L17 9L17 11L16 11L16 13L15 13L15 7ZM4 9L4 12L3 12L3 13L4 13L4 16L3 16L3 14L2 14L2 12L1 12L1 14L2 14L2 16L3 16L3 17L2 17L2 18L3 18L3 17L4 17L4 19L3 19L3 20L5 20L5 16L7 16L7 15L5 15L5 13L4 13L4 12L5 12L5 9ZM6 9L6 10L7 10L7 11L6 11L6 12L7 12L7 13L6 13L6 14L7 14L7 13L8 13L8 14L9 14L9 15L10 15L10 14L9 14L9 13L10 13L10 12L9 12L9 11L8 11L8 10L7 10L7 9ZM18 9L18 10L19 10L19 9ZM8 12L8 13L9 13L9 12ZM16 14L16 15L18 15L18 14ZM12 15L12 17L13 17L13 15ZM17 17L17 18L18 18L18 17ZM27 19L27 20L28 20L28 19ZM25 20L25 22L26 22L26 20ZM21 21L21 24L24 24L24 21ZM22 22L22 23L23 23L23 22ZM25 23L25 24L26 24L26 25L27 25L27 24L26 24L26 23ZM24 25L24 27L23 27L23 28L25 28L25 25ZM10 26L10 27L11 27L11 26ZM16 27L16 28L17 28L17 27ZM0 0L7 0L7 7L0 7ZM1 1L1 6L6 6L6 1ZM2 2L5 2L5 5L2 5ZM22 0L29 0L29 7L22 7ZM23 1L23 6L28 6L28 1ZM24 2L27 2L27 5L24 5ZM0 22L7 22L7 29L0 29ZM1 23L1 28L6 28L6 23ZM2 24L5 24L5 27L2 27Z" fill="#000000"/></g></g></svg>
