<?xml version="1.0" encoding="utf-8"?><svg xmlns="http://www.w3.org/2000/svg" xmlns:xlink="http://www.w3.org/1999/xlink" width="500" height="583.50" viewBox="0 0 500 583.50" style="fill: #000000"><rect x="15.00" y="15.00" width="471.70" height="471.70" fill="#ffffff" fill-opacity="1" /><g transform="scale(20.83) translate(0 0)"><path d="M22.7,0H1.3C0.6,0,0,0.6,0,1.3v25.3C0,27.4,0.6,28,1.3,28h21.3c0.7,0,1.3-0.6,1.3-1.3V1.3C24,0.6,23.4,0,22.7,0 z M23,22c0,0.6-0.5,1-1,1H2c-0.6,0-1-0.5-1-1V2c0-0.6,0.5-1,1-1h20c0.6,0,1,0.5,1,1V22z" />
                            
                        </g><g transform="scale(0.85) translate(43.48 43.48)"><svg xmlns="http://www.w3.org/2000/svg" version="1.1" width="500" height="500" viewBox="0 0 500 500"><g transform="scale(17.241)"><g transform="translate(0,0)"><path d="M8 0L8 1L9 1L9 2L8 2L8 3L9 3L9 5L8 5L8 7L9 7L9 8L10 8L10 7L11 7L11 8L12 8L12 9L9 9L9 11L7 11L7 10L8 10L8 8L6 8L6 9L7 9L7 10L5 10L5 9L3 9L3 8L2 8L2 9L3 9L3 12L4 12L4 14L5 14L5 15L3 15L3 14L0 14L0 15L1 15L1 16L6 16L6 17L5 17L5 18L6 18L6 19L4 19L4 17L2 17L2 18L0 18L0 19L3 19L3 20L0 20L0 21L4 21L4 20L5 20L5 21L8 21L8 23L10 23L10 22L11 22L11 21L10 21L10 22L9 22L9 20L12 20L12 22L13 22L13 23L11 23L11 25L10 25L10 26L8 26L8 27L9 27L9 28L8 28L8 29L9 29L9 28L10 28L10 29L12 29L12 28L13 28L13 29L16 29L16 28L17 28L17 29L19 29L19 28L18 28L18 27L16 27L16 24L17 24L17 23L16 23L16 22L17 22L17 21L18 21L18 22L19 22L19 23L20 23L20 28L21 28L21 29L22 29L22 28L21 28L21 25L23 25L23 26L25 26L25 27L24 27L24 28L23 28L23 29L25 29L25 28L28 28L28 29L29 29L29 26L28 26L28 24L29 24L29 22L28 22L28 24L27 24L27 23L26 23L26 24L25 24L25 20L24 20L24 19L23 19L23 17L24 17L24 18L26 18L26 17L27 17L27 16L25 16L25 17L24 17L24 14L26 14L26 13L27 13L27 12L28 12L28 13L29 13L29 10L28 10L28 11L27 11L27 12L26 12L26 11L25 11L25 12L24 12L24 10L26 10L26 9L27 9L27 8L26 8L26 9L24 9L24 8L23 8L23 9L24 9L24 10L22 10L22 9L21 9L21 10L19 10L19 9L20 9L20 8L21 8L21 6L20 6L20 5L21 5L21 3L20 3L20 4L19 4L19 5L18 5L18 4L17 4L17 6L16 6L16 4L15 4L15 3L17 3L17 2L18 2L18 3L19 3L19 1L18 1L18 0L15 0L15 1L13 1L13 2L14 2L14 4L11 4L11 3L9 3L9 2L12 2L12 0ZM15 1L15 2L16 2L16 1ZM9 5L9 7L10 7L10 6L11 6L11 7L12 7L12 8L14 8L14 6L15 6L15 7L16 7L16 6L15 6L15 5L12 5L12 6L11 6L11 5ZM12 6L12 7L13 7L13 6ZM17 6L17 9L16 9L16 8L15 8L15 10L13 10L13 11L12 11L12 10L10 10L10 11L9 11L9 12L7 12L7 11L5 11L5 10L4 10L4 12L5 12L5 14L7 14L7 15L6 15L6 16L8 16L8 17L6 17L6 18L7 18L7 19L6 19L6 20L9 20L9 19L10 19L10 18L9 18L9 17L10 17L10 15L9 15L9 13L10 13L10 14L11 14L11 15L12 15L12 16L11 16L11 19L12 19L12 20L13 20L13 19L14 19L14 21L13 21L13 22L16 22L16 21L15 21L15 18L16 18L16 17L17 17L17 20L18 20L18 21L19 21L19 18L20 18L20 17L18 17L18 15L20 15L20 16L22 16L22 17L23 17L23 16L22 16L22 13L23 13L23 12L22 12L22 10L21 10L21 12L20 12L20 13L21 13L21 15L20 15L20 14L18 14L18 13L19 13L19 11L18 11L18 6ZM19 6L19 7L20 7L20 6ZM0 8L0 13L1 13L1 11L2 11L2 10L1 10L1 8ZM28 8L28 9L29 9L29 8ZM15 10L15 11L17 11L17 12L15 12L15 14L13 14L13 13L14 13L14 11L13 11L13 12L11 12L11 11L10 11L10 13L12 13L12 14L13 14L13 15L14 15L14 16L13 16L13 18L12 18L12 19L13 19L13 18L15 18L15 17L16 17L16 16L17 16L17 15L16 15L16 13L18 13L18 11L17 11L17 10ZM6 12L6 13L7 13L7 14L8 14L8 13L7 13L7 12ZM27 14L27 15L28 15L28 17L29 17L29 15L28 15L28 14ZM21 18L21 19L22 19L22 18ZM27 18L27 19L28 19L28 20L27 20L27 21L29 21L29 18ZM21 21L21 24L24 24L24 21ZM22 22L22 23L23 23L23 22ZM13 23L13 24L12 24L12 25L11 25L11 26L13 26L13 24L14 24L14 23ZM26 24L26 25L25 25L25 26L26 26L26 27L27 27L27 24ZM18 25L18 26L19 26L19 25ZM10 27L10 28L11 28L11 27ZM14 27L14 28L15 28L15 27ZM0 3.5C0 0 0 0 3.5 0M0 3.5C0 7 0 7 3.5 7M3.5 7C7 7 7 7 7 3.5M7 3.5C7 0 7 0 3.5 0M7 3.5A0 0 0 0 1 3.5 7A0 0 0 0 1 0 3.5A0 0 0 0 1 3.5 0A0 0 0 0 1 7 3.5ZM1 3.5C1 1 1 1 3.5 1M1 3.5C1 6 1 6 3.5 6M3.5 6C6 6 6 6 6 3.5M6 3.5C6 1 6 1 3.5 1M6 3.5A0 0 0 0 1 3.5 6A0 0 0 0 1 1 3.5A0 0 0 0 1 3.5 1A0 0 0 0 1 6 3.5ZM2 3.5C2 2 2 2 3.5 2M2 3.5C2 5 2 5 3.5 5M3.5 5C5 5 5 5 5 3.5M5 3.5C5 2 5 2 3.5 2M5 3.5A0 0 0 0 1 3.5 5A0 0 0 0 1 2 3.5A0 0 0 0 1 3.5 2A0 0 0 0 1 5 3.5ZM22 3.5C22 0 22 0 25.5 0M22 3.5C22 7 22 7 25.5 7M25.5 7C29 7 29 7 29 3.5M29 3.5C29 0 29 0 25.5 0M29 3.5A0 0 0 0 1 25.5 7A0 0 0 0 1 22 3.5A0 0 0 0 1 25.5 0A0 0 0 0 1 29 3.5ZM23 3.5C23 1 23 1 25.5 1M23 3.5C23 6 23 6 25.5 6M25.5 6C28 6 28 6 28 3.5M28 3.5C28 1 28 1 25.5 1M28 3.5A0 0 0 0 1 25.5 6A0 0 0 0 1 23 3.5A0 0 0 0 1 25.5 1A0 0 0 0 1 28 3.5ZM24 3.5C24 2 24 2 25.5 2M24 3.5C24 5 24 5 25.5 5M25.5 5C27 5 27 5 27 3.5M27 3.5C27 2 27 2 25.5 2M27 3.5A0 0 0 0 1 25.5 5A0 0 0 0 1 24 3.5A0 0 0 0 1 25.5 2A0 0 0 0 1 27 3.5ZM0 25.5C0 22 0 22 3.5 22M0 25.5C0 29 0 29 3.5 29M3.5 29C7 29 7 29 7 25.5M7 25.5C7 22 7 22 3.5 22M7 25.5A0 0 0 0 1 3.5 29A0 0 0 0 1 0 25.5A0 0 0 0 1 3.5 22A0 0 0 0 1 7 25.5ZM1 25.5C1 23 1 23 3.5 23M1 25.5C1 28 1 28 3.5 28M3.5 28C6 28 6 28 6 25.5M6 25.5C6 23 6 23 3.5 23M6 25.5A0 0 0 0 1 3.5 28A0 0 0 0 1 1 25.5A0 0 0 0 1 3.5 23A0 0 0 0 1 6 25.5ZM2 25.5C2 24 2 24 3.5 24M2 25.5C2 27 2 27 3.5 27M3.5 27C5 27 5 27 5 25.5M5 25.5C5 24 5 24 3.5 24M5 25.5A0 0 0 0 1 3.5 27A0 0 0 0 1 2 25.5A0 0 0 0 1 3.5 24A0 0 0 0 1 5 25.5Z" style="fill-rule: evenodd; fill: #000000" /></g></g></svg></g><svg><text x="50%" y="92%" style="dominant-baseline: middle; text-anchor: middle; font-weight: bold; font-size: 38.46px; fill: #ffffff; font-family: Trebuchet MS, sans-serif">www.zlinks.id/register</text></svg></svg>